<svg width="82" height="83" viewBox="0 0 425 425" fill="none" xmlns="http://www.w3.org/2000/svg">
<g clip-path="url(#clip0_304_157)">
<path d="M419 0H256C252.686 0 250 2.68629 250 6V169C250 172.314 252.686 175 256 175H419C422.314 175 425 172.314 425 169V6C425 2.68629 422.314 0 419 0Z" fill="url(#paint0_radial_304_157)"/>
<path d="M156 275H369C372.31 275 375 272.31 375 269V206C375 202.69 372.31 200 369 200H231C227.69 200 225 197.31 225 194V56C225 52.69 222.31 50 219 50H156C152.69 50 150 52.69 150 56V269C150 272.31 152.69 275 156 275Z" fill="url(#paint1_linear_304_157)"/>
<path fill-rule="evenodd" clip-rule="evenodd" d="M125.001 67.8101V182.2C125.001 185.13 122.631 187.5 119.701 187.5H5.31058C0.590578 187.5 -1.77942 181.79 1.56058 178.45L115.951 64.0601C119.291 60.7201 125.001 63.0901 125.001 67.8101Z" fill="url(#paint2_linear_304_157)"/>
<path fill-rule="evenodd" clip-rule="evenodd" d="M237.5 419.69V305.3C237.5 302.37 239.87 300 242.8 300H357.19C361.91 300 364.28 305.71 360.94 309.05L246.55 423.44C243.21 426.78 237.5 424.41 237.5 419.69Z" fill="url(#paint3_linear_304_157)"/>
</g>
<defs>
<radialGradient id="paint0_radial_304_157" cx="0" cy="0" r="1" gradientUnits="userSpaceOnUse" gradientTransform="translate(218.04 206.05) scale(379.8)">
<stop offset="0.07" stop-color="#1B58F4"/>
<stop offset="0.71" stop-color="#74FFE6"/>
</radialGradient>
<linearGradient id="paint1_linear_304_157" x1="467.55" y1="-37.49" x2="137.29" y2="284.62" gradientUnits="userSpaceOnUse">
<stop offset="0.32" stop-color="#4979F6"/>
<stop offset="0.99" stop-color="#4D33BD"/>
</linearGradient>
<linearGradient id="paint2_linear_304_157" x1="155.951" y1="88.7501" x2="21.3906" y2="223.32" gradientUnits="userSpaceOnUse">
<stop offset="0.22" stop-color="#4D29B4"/>
<stop offset="0.36" stop-color="#4C33BC"/>
<stop offset="0.58" stop-color="#4B4ED2"/>
<stop offset="0.87" stop-color="#4979F6"/>
</linearGradient>
<linearGradient id="paint3_linear_304_157" x1="332.52" y1="272.77" x2="210.62" y2="394.67" gradientUnits="userSpaceOnUse">
<stop offset="0.22" stop-color="#4D29B4"/>
<stop offset="0.36" stop-color="#4C33BC"/>
<stop offset="0.58" stop-color="#4B4ED2"/>
<stop offset="0.87" stop-color="#4979F6"/>
</linearGradient>
<clipPath id="clip0_304_157">
<rect width="425" height="425" fill="white"/>
</clipPath>
</defs>
</svg>
